<svg aria-hidden="true" style="position: absolute; width: 0px; height: 0px; overflow-x: hidden; overflow-y: hidden;"
    version="1.1" xmlns="http://www.w3.org/2000/svg">
    <defs>
        <symbol id="icon-calendar" viewBox="0 0 32 32">
            <path fill="none" stroke="#407bff" style="" stroke-linejoin="round" stroke-linecap="round"
                stroke-miterlimit="4" stroke-width="1.6"
                d="M9 4v3m14-3v3M4 25V10c0-.796.316-1.56.88-2.12S6.204 7 7 7h18c.796 0 1.56.316 2.12.88S28 9.204 28 10v15M4 25c0 .796.316 1.56.88 2.12S6.204 28 7 28h18c.796 0 1.56-.316 2.12-.88S28 25.796 28 25M4 25V15c0-.796.316-1.56.88-2.12S6.204 12 7 12h18c.796 0 1.56.316 2.12.88S28 14.204 28 15v10m-12-8h.01v.01H16V17zm0 3h.01v.01H16V20zm0 3h.01v.01H16V23zm-3-3h.01v.01H13V20zm0 3h.01v.01H13V23zm-3-3h.01v.01H10V20zm0 3h.01v.01H10V23zm9-6h.01v.01H19V17zm0 3h.01v.01H19V20zm0 3h.01v.01H19V23zm3-6h.01v.01H22V17zm0 3h.01v.01H22V20z" />
        </symbol>
        <symbol id="icon-presentation" viewBox="0 0 32 32">
            <path fill="none" stroke="#407bff" style="" stroke-linejoin="round" stroke-linecap="round"
                stroke-miterlimit="4" stroke-width="1.6"
                d="M5 4v15c0 .796.316 1.56.88 2.12S7.204 22 8 22h3M5 4H3m2 0h22M11 22h10m-10 0-1.333 4M27 4h2m-2 0v15c0 .796-.316 1.56-.88 2.12S24.796 22 24 22h-3m0 0 1.333 4M9.667 26h12.667M9.667 26 9 28m13.333-2L23 28M12 15v2m4-5v5m4-8v8" />
        </symbol>
        <symbol id="icon-wrench" viewBox="0 0 32 32">
            <path fill="none" stroke="#407bff" style="" stroke-linejoin="round" stroke-linecap="round"
                stroke-miterlimit="4" stroke-width="1.6"
                d="M15.227 20.227 23 28a3.535 3.535 0 0 0 5.996-2.513A3.535 3.535 0 0 0 28 23l-7.835-7.837m-4.938 5.064 3.328-4.04c.423-.512.987-.835 1.61-1.02.734-.22 1.552-.252 2.325-.188a6 6 0 0 0 5.982-8.45l-4.368 4.37a4.01 4.01 0 0 1-3-3l4.368-4.37a6.008 6.008 0 0 0-7.912 2.943 6.01 6.01 0 0 0-.536 3.04c.12 1.435-.095 3.02-1.205 3.933l-.137.113m-.456 6.667L9.02 27.764a3.403 3.403 0 0 1-2.46 1.24A3.4 3.4 0 0 1 3 25.44c.024-.474.146-.937.36-1.36a3.39 3.39 0 0 1 .88-1.1l9.115-7.507L7.88 10H6L3 5l2-2 5 3v1.878l5.68 5.68-2.327 1.916M24.5 24.5 21 21M6.49 25.5h.01v.01h-.01v-.01z" />
        </symbol>
    </defs>
</svg>