<svg width="52" height="52" viewBox="0 0 52 52" fill="none" xmlns="http://www.w3.org/2000/svg">
<g filter="url(#filter0_d_3840_7368)">
<rect x="4" y="2" width="44" height="44" rx="22" fill="white" shape-rendering="crispEdges"/>
<rect x="4.5" y="2.5" width="43" height="43" rx="21.5" stroke="#9EBBFF" shape-rendering="crispEdges"/>
<path fill-rule="evenodd" clip-rule="evenodd" d="M19.25 24C19.25 23.8011 19.329 23.6103 19.4697 23.4697C19.6103 23.329 19.8011 23.25 20 23.25H32C32.1989 23.25 32.3897 23.329 32.5303 23.4697C32.671 23.6103 32.75 23.8011 32.75 24C32.75 24.1989 32.671 24.3897 32.5303 24.5303C32.3897 24.671 32.1989 24.75 32 24.75H20C19.8011 24.75 19.6103 24.671 19.4697 24.5303C19.329 24.3897 19.25 24.1989 19.25 24Z" fill="#407BFF"/>
</g>
<defs>
<filter id="filter0_d_3840_7368" x="0" y="0" width="52" height="52" filterUnits="userSpaceOnUse" color-interpolation-filters="sRGB">
<feFlood flood-opacity="0" result="BackgroundImageFix"/>
<feColorMatrix in="SourceAlpha" type="matrix" values="0 0 0 0 0 0 0 0 0 0 0 0 0 0 0 0 0 0 127 0" result="hardAlpha"/>
<feOffset dy="2"/>
<feGaussianBlur stdDeviation="2"/>
<feComposite in2="hardAlpha" operator="out"/>
<feColorMatrix type="matrix" values="0 0 0 0 0.25098 0 0 0 0 0.482353 0 0 0 0 1 0 0 0 0.2 0"/>
<feBlend mode="normal" in2="BackgroundImageFix" result="effect1_dropShadow_3840_7368"/>
<feBlend mode="normal" in="SourceGraphic" in2="effect1_dropShadow_3840_7368" result="shape"/>
</filter>
</defs>
</svg>
