
<svg aria-hidden="true" style="position: absolute; width: 0px; height: 0px; overflow-x: hidden; overflow-y: hidden;" version="1.1" xmlns="http://www.w3.org/2000/svg">
<defs><symbol id="icon-eye-open" viewBox="0 0 32 32"><path stroke-linejoin="round" stroke-linecap="round" stroke-miterlimit="4" stroke-width="1.3333" d="M2.715 16.43a1.35 1.35 0 0 1 0-.853C4.565 10.013 9.815 6 16 6c6.184 0 11.43 4.01 13.284 9.57.093.277.093.576 0 .853C27.436 21.987 22.187 26 16 26c-6.184 0-11.432-4.01-13.285-9.57z"/><path stroke-linejoin="round" stroke-linecap="round" stroke-miterlimit="4" stroke-width="1.3333" d="M20 16a4.005 4.005 0 0 1-4 4 4.005 4.005 0 0 1-4-4 4.005 4.005 0 0 1 4-4 4.005 4.005 0 0 1 4 4z"/></symbol>
<symbol id="icon-eye-closed" viewBox="0 0 32 32"><path stroke-linejoin="round" stroke-linecap="round" stroke-miterlimit="4" stroke-width="1.3333" d="M5.307 10.964A13.978 13.978 0 0 0 2.58 16C4.3 21.784 9.66 26 16 26c1.324 0 2.604-.184 3.817-.527M8.304 8.303A13.936 13.936 0 0 1 16 6c6.34 0 11.697 4.216 13.42 9.997a14.033 14.033 0 0 1-5.724 7.7M8.304 8.303 4 4m4.304 4.304 4.867 4.867m10.526 10.526L28 28m-4.304-4.304L18.83 18.83A3.996 3.996 0 0 0 20 16a4 4 0 0 0-4-4 4.017 4.017 0 0 0-2.83 1.172m5.658 5.656-5.655-5.655"/></symbol>
</defs>
</svg>